<svg xmlns="http://www.w3.org/2000/svg" width="80" height="80" viewBox="0 0 80 80">
  <g fill="none" fill-rule="evenodd">
    <circle fill="#1fa8f1" cx="40" cy="40" r="40"></circle>
    <path fill="#FFFFFF" d="M37,55 C33.1340068,55 30,51.8659932 30,48 C30,44.1340068 33.1340068,41 37,41 C40.8659932,41 44,44.1340068 44,48 C44,51.8659932 40.8659932,55 37,55 Z M4,36 C2.34314575,36 1,34.6568542 1,33 C1,31.3431458 2.34314575,30 4,30 C5.65685425,30 7,31.3431458 7,33 C7,34.6568542 5.65685425,36 4,36 Z M22,58 C20.3431458,58 19,56.6568542 19,55 C19,53.3431458 20.3431458,52 22,52 C23.6568542,52 25,53.3431458 25,55 C25,56.6568542 23.6568542,58 22,58 Z M26,76 C24.3431458,76 23,74.6568542 23,73 C23,71.3431458 24.3431458,70 26,70 C27.6568542,70 29,71.3431458 29,73 C29,74.6568542 27.6568542,76 26,76 Z M54,55 C52.3431458,55 51,53.6568542 51,52 C51,50.3431458 52.3431458,49 54,49 C55.6568542,49 57,50.3431458 57,52 C57,53.6568542 55.6568542,55 54,55 Z M66,42 C64.3431458,42 63,40.6568542 63,39 C63,37.3431458 64.3431458,36 66,36 C67.6568542,36 69,37.3431458 69,39 C69,40.6568542 67.6568542,42 66,42 Z M64,9 C62.3431458,9 61,7.65685425 61,6 C61,4.34314575 62.3431458,3 64,3 C65.6568542,3 67,4.34314575 67,6 C67,7.65685425 65.6568542,9 64,9 Z M46,10 C44.3431458,10 43,8.65685425 43,7 C43,5.34314575 44.3431458,4 46,4 C47.6568542,4 49,5.34314575 49,7 C49,8.65685425 47.6568542,10 46,10 Z M34,23 C32.3431458,23 31,21.6568542 31,20 C31,18.3431458 32.3431458,17 34,17 C35.6568542,17 37,18.3431458 37,20 C37,21.6568542 35.6568542,23 34,23 Z"/>
    <polyline stroke="#FFFFFF" stroke-width="2" points="22 55 37 48 4 33"/>
    <polyline stroke="#FFFFFF" stroke-width="2" points="34 20 37 48 46 7"/>
    <polyline stroke="#FFFFFF" stroke-width="2" points="66 39 37 48 54 52"/>
    <polyline stroke="#FFFFFF" stroke-width="2" points="26 73 37 48 64 6"/>
  </g>
</svg>
