<svg xmlns="http://www.w3.org/2000/svg" width="48" height="48" viewBox="0 0 48 48">
  <path fill="none" stroke="#FFFFFF" stroke-width="2" d="M39,31.2598974 L39,31.2598974 C40.658,31.2598974 42,32.6038974 42,34.2598974 C42,35.9198974 40.658,37.2598974 39,37.2598974 L37,37.2598974 C38.658,37.2598974 40,38.6038974 40,40.2598974 C40,41.9198974 38.658,43.2598974 37,43.2598974 L24,43.2598974 C16,43.2598974 18,39.2598974 2,39.2598974 L2,21.2598974 L8,21.2598974 C15,21.2598974 23,14.8178974 23,5.25989737 C23,2.09789737 29,1.69789737 29,7.69789737 C29,11.6978974 27,19.2598974 27,19.2598974 L43,19.2598974 C44.658,19.2598974 46,20.6038974 46,22.2598974 C46,23.9198974 44.658,25.2598974 43,25.2598974 L41,25.2598974 C42.658,25.2598974 44,26.6038974 44,28.2598974 C44,29.9198974 42.658,31.2598974 41,31.2598974 L39,31.2598974" stroke-linecap="round" stroke-linejoin="round"/>
</svg>
